<svg width="1200" height="630" viewBox="0 0 1200 630" xmlns="http://www.w3.org/2000/svg">
  <!-- Background gradient -->
  <defs>
    <linearGradient id="bgGradient" x1="0%" y1="0%" x2="100%" y2="100%">
      <stop offset="0%" style="stop-color:#fef3c7;stop-opacity:1" />
      <stop offset="50%" style="stop-color:#fbbf24;stop-opacity:1" />
      <stop offset="100%" style="stop-color:#f59e0b;stop-opacity:1" />
    </linearGradient>
    <radialGradient id="cookieGradient" cx="50%" cy="50%" r="50%">
      <stop offset="0%" style="stop-color:#fef3c7;stop-opacity:1" />
      <stop offset="70%" style="stop-color:#fbbf24;stop-opacity:1" />
      <stop offset="100%" style="stop-color:#d97706;stop-opacity:1" />
    </radialGradient>
  </defs>
  
  <!-- Background -->
  <rect width="1200" height="630" fill="url(#bgGradient)"/>
  
  <!-- Decorative elements -->
  <circle cx="100" cy="100" r="30" fill="#fbbf24" opacity="0.3"/>
  <circle cx="1100" cy="530" r="40" fill="#f59e0b" opacity="0.2"/>
  <circle cx="200" cy="500" r="25" fill="#fef3c7" opacity="0.4"/>
  <circle cx="1000" cy="150" r="35" fill="#d97706" opacity="0.3"/>
  
  <!-- Main fortune cookie -->
  <g transform="translate(200, 200)">
    <!-- Cookie body -->
    <ellipse cx="0" cy="0" rx="120" ry="80" fill="url(#cookieGradient)" stroke="#92400e" stroke-width="3"/>
    <!-- Cookie fold -->
    <path d="M -80 -20 Q 0 -40 80 -20" fill="none" stroke="#92400e" stroke-width="2"/>
    <!-- Paper slip -->
    <rect x="-30" y="20" width="60" height="25" rx="3" fill="white" stroke="#92400e" stroke-width="1"/>
    <!-- Text on paper -->
    <text x="0" y="35" text-anchor="middle" font-family="Arial, sans-serif" font-size="12" fill="#92400e" font-weight="bold">AI</text>
  </g>
  
  <!-- Title -->
  <text x="600" y="200" text-anchor="middle" font-family="Arial, sans-serif" font-size="72" font-weight="bold" fill="#92400e">
    Fortune Cookie AI
  </text>
  
  <!-- Subtitle -->
  <text x="600" y="260" text-anchor="middle" font-family="Arial, sans-serif" font-size="32" fill="#7c2d12">
    Free Online AI Generator
  </text>
  
  <!-- Description -->
  <text x="600" y="320" text-anchor="middle" font-family="Arial, sans-serif" font-size="24" fill="#7c2d12">
    Get personalized inspirational messages, funny quotes, and lucky numbers
  </text>
  
  <!-- Call to action -->
  <rect x="450" y="380" width="300" height="60" rx="30" fill="#dc2626" stroke="#991b1b" stroke-width="2"/>
  <text x="600" y="420" text-anchor="middle" font-family="Arial, sans-serif" font-size="28" font-weight="bold" fill="white">
    Try It Free Now!
  </text>
  
  <!-- Website URL -->
  <text x="600" y="500" text-anchor="middle" font-family="Arial, sans-serif" font-size="20" fill="#7c2d12">
    www.fortune-cookie.cc
  </text>
  
  <!-- Sparkles decoration -->
  <g fill="#fbbf24" opacity="0.6">
    <polygon points="50,300 55,310 65,310 57,318 60,328 50,322 40,328 43,318 35,310 45,310" />
    <polygon points="950,100 955,110 965,110 957,118 960,128 950,122 940,128 943,118 935,110 945,110" />
    <polygon points="150,450 155,460 165,460 157,468 160,478 150,472 140,478 143,468 135,460 145,460" />
    <polygon points="1050,400 1055,410 1065,410 1057,418 1060,428 1050,422 1040,428 1043,418 1035,410 1045,410" />
  </g>
</svg>
